<?xml version="1.0" encoding="UTF-8"?> <!-- Generator: Adobe Illustrator 22.0.1, SVG Export Plug-In . SVG Version: 6.00 Build 0) --> <svg xmlns="http://www.w3.org/2000/svg" xmlns:xlink="http://www.w3.org/1999/xlink" id="Слой_1" x="0px" y="0px" viewBox="0 0 100 100" style="enable-background:new 0 0 100 100;" xml:space="preserve"> <style type="text/css"> .st0{fill:#E7C047;} </style> <g> <path class="st0" d="M76,54.1C74.3,68,64.4,68.9,62.6,69.5c-0.8,0.3-8,2.1-17.1,1.5l-9.8,10.9l0-12.6l-0.1,0 C22.4,65.5,22.8,51.4,23,44c0.1-7.4,1.5-13.5,5.5-17.5c7.2-6.7,22.2-5.7,22.2-5.7c12.6,0.1,18.6,3.9,20,5.2 C75.4,30.1,77.8,39.8,76,54.1 M74.2,22.5C72.5,21,65.8,16,50.9,16c0,0-17.6-1.1-26.1,7c-4.8,4.9-6.4,12-6.6,20.9 c-0.2,8.9-0.4,25.5,15.2,30l0,0l0,6.9c0,0-0.1,2.8,1.7,3.3c2.2,0.7,3.4-1.4,5.5-3.7c1.1-1.2,2.7-3.1,3.9-4.5 c10.7,0.9,18.9-1.2,19.8-1.5c2.2-0.7,14.4-2.3,16.4-18.9C82.7,38.3,79.7,27.4,74.2,22.5"></path> <path class="st0" d="M64.6,56.2c0,0-2-1.7-3-2.4c-0.9-0.7-2.4-1.6-3.2-2.1c-1.5-0.8-3-0.3-3.6,0.5l-1.3,1.7 c-0.7,0.8-1.7,0.7-1.9,0.6c-1.9-0.5-3.9-1.7-6-3.7c-2.1-2-3.4-4.1-3.8-6.3l0-0.1c-0.1-0.9,0-1.3,0.4-1.9l0.1-0.1 c0.9-0.8,2.5-1.8,2.7-2.7c0.6-1.6-2.1-5-2.5-5.6c0,0-2-2.7-2.7-3.2c-0.8-0.6-2-1-3.2-0.3l-0.1,0c-3.5,2.3-4.7,3.7-4.4,5.7l0.2,0.8 c1.8,5.5,5.1,11.4,10.2,16.6c5,5.2,10.4,8.3,15.7,10.4c1.4,0.5,2.8,0.1,4.3-1.2l0,0c1.1-1.1,2-2.2,2.7-3.4l0,0 C65.8,58.2,65.6,57,64.6,56.2"></path> <path class="st0" d="M56.4,44.1c-0.2,0-0.4-0.2-0.4-0.4c-0.1-1.4-0.5-2.5-1.1-3.3c-0.7-0.7-1.7-1.1-3.1-1.2c-0.2,0-0.4-0.2-0.4-0.4 c0-0.2,0.2-0.4,0.4-0.4c1.6,0.1,2.8,0.6,3.6,1.5c0.8,0.9,1.3,2.1,1.4,3.8C56.8,43.9,56.6,44.1,56.4,44.1L56.4,44.1"></path> <path class="st0" d="M60.3,45.5L60.3,45.5c-0.2,0-0.4-0.2-0.4-0.4c0.1-2.7-0.7-5.1-2.4-6.9c-0.8-0.9-1.8-1.6-3-2.2 c-1.1-0.5-2.5-0.8-4-0.9c-0.2,0-0.4-0.2-0.4-0.4c0-0.2,0.2-0.4,0.4-0.4c3.2,0.2,5.7,1.4,7.5,3.4c1.8,2,2.7,4.5,2.6,7.5 C60.7,45.3,60.5,45.5,60.3,45.5"></path> <path class="st0" d="M64.3,47.1c-0.2,0-0.4-0.2-0.4-0.4c0-2.4-0.4-4.6-1.1-6.5c-0.7-1.9-1.8-3.6-3.1-4.9c-1.4-1.4-3-2.4-4.7-3.1 c-1.7-0.7-3.7-1.1-5.7-1.1c-0.2,0-0.4-0.2-0.4-0.4c0-0.2,0.2-0.4,0.4-0.4h0c4.4,0,8,1.5,11,4.5c1.5,1.5,2.6,3.2,3.3,5.2 c0.7,2,1.1,4.3,1.1,6.8C64.7,46.9,64.6,47.1,64.3,47.1L64.3,47.1z"></path> </g> </svg> 