<?xml version="1.0" encoding="UTF-8"?> <!-- Generator: Adobe Illustrator 22.0.1, SVG Export Plug-In . SVG Version: 6.00 Build 0) --> <svg xmlns="http://www.w3.org/2000/svg" xmlns:xlink="http://www.w3.org/1999/xlink" id="Слой_1" x="0px" y="0px" viewBox="0 0 100 100" style="enable-background:new 0 0 100 100;" xml:space="preserve"> <style type="text/css"> .st0{fill:#E7C047;} </style> <g> <path class="st0" d="M50,82.6c-8.7,0-16.9-3.4-23.1-9.6c-6.2-6.2-9.6-14.4-9.6-23.1c0-8.7,3.4-16.9,9.6-23.1 c6.2-6.2,14.4-9.6,23.1-9.6c8.7,0,16.9,3.4,23.1,9.6c6.2,6.2,9.6,14.4,9.6,23.1c0,8.7-3.4,16.9-9.6,23.1 C66.9,79.2,58.7,82.6,50,82.6z M50,20.5c-16.3,0-29.5,13.2-29.5,29.5S33.7,79.5,50,79.5c16.3,0,29.5-13.2,29.5-29.5 S66.3,20.5,50,20.5z"></path> </g> <g> <g> <path class="st0" d="M57.7,67.3c-0.5,0-1-0.1-1.6-0.4c-0.1,0-0.2-0.1-0.3-0.2L43.2,57l-4.5-2.2L31,52.2c0,0,0,0,0,0 c-0.2-0.1-1.9-0.7-2.1-2.4c-0.2-1.4,1-2.3,2.1-2.7l31.1-12.2c0.5-0.2,2.1-0.8,3.3-0.1c0.4,0.2,1,0.8,1,1.9c0,0.1,0,0.2,0,0.2 l-5.5,28c0,0.1,0,0.1-0.1,0.2c-0.1,0.1-0.5,1.3-1.8,1.8C58.6,67.1,58.2,67.3,57.7,67.3z M57.3,64.7c0.3,0.1,0.5,0.1,0.7,0.1 c0.2-0.1,0.3-0.3,0.4-0.4L63.8,37c-0.2,0-0.6,0.1-0.8,0.2c0,0,0,0,0,0L31.9,49.4c0,0,0,0-0.1,0c-0.1,0.1-0.3,0.1-0.4,0.2 c0.1,0.1,0.3,0.2,0.4,0.3l7.8,2.6c0,0,0.1,0,0.1,0.1l4.7,2.2c0.1,0,0.1,0.1,0.2,0.1L57.3,64.7z"></path> </g> <g> <path class="st0" d="M48.8,59.7l-5.1,4.6c0,0.1-0.8,0.1-0.8,0l1-8.5l0.1-0.1c0,0,14.2-12.8,14.8-13.3s0.4-0.7,0.4-0.7 c0-0.7-1,0-1,0L39.2,53.7c0,0,2.4,7.8,2.8,9.2c0.5,1.5,0.7,1.4,0.8,1.4"></path> <path class="st0" d="M43.3,65.7c-0.2,0-0.4,0-0.6-0.1c-1-0.1-1.5-1.2-1.8-2.3c-0.5-1.5-2.7-8.9-2.8-9.2c-0.2-0.5,0-1.1,0.5-1.4 l18.8-11.9c0,0,0,0,0,0c0.6-0.4,1.5-0.7,2.2-0.3c0.4,0.2,0.6,0.6,0.7,1c0,0.1,0,0.1,0,0.2c0.1,0.7-0.4,1.2-0.8,1.6 C59,43.8,47.1,54.5,45,56.4l-0.7,5.7l3.6-3.3c0.5-0.5,1.3-0.4,1.7,0.1c0.5,0.5,0.4,1.3-0.1,1.7l-5,4.5 C44.4,65.4,44,65.7,43.3,65.7z M40.6,54.3c0.4,1.2,1,3.3,1.6,5.1l0.4-3.6c0-0.1,0-0.2,0.1-0.3l0.1-0.1c0.1-0.2,0.2-0.4,0.3-0.5 c2.2-2,5.3-4.7,8-7.2L40.6,54.3z"></path> </g> <g> <path class="st0" d="M48.8,61c-0.3,0-0.5-0.1-0.8-0.3l-4.9-3.8c-0.5-0.4-0.6-1.2-0.2-1.7c0.4-0.5,1.2-0.6,1.7-0.2l4.9,3.8 c0.5,0.4,0.6,1.2,0.2,1.7C49.5,60.8,49.1,61,48.8,61z"></path> </g> </g> </svg> 