<?xml version="1.0" encoding="UTF-8"?> <!-- Generator: Adobe Illustrator 22.0.1, SVG Export Plug-In . SVG Version: 6.00 Build 0) --> <svg xmlns="http://www.w3.org/2000/svg" xmlns:xlink="http://www.w3.org/1999/xlink" id="Слой_1" x="0px" y="0px" viewBox="0 0 100 100" style="enable-background:new 0 0 100 100;" xml:space="preserve"> <style type="text/css"> .st0{fill-rule:evenodd;clip-rule:evenodd;fill:#E7C047;} </style> <g> <g> <path class="st0" d="M50.6,17.8c-17.3,0-31.4,14-31.4,31.4c0,5.9,1.6,11.5,4.5,16.2l-5.7,16.8l17.4-5.6c4.5,2.5,9.7,3.9,15.2,3.9 c17.3,0,31.4-14,31.4-31.4C81.9,31.9,67.9,17.8,50.6,17.8z M50.6,75.3c-5.3,0-10.2-1.6-14.4-4.3l-10,3.2l3.3-9.7 c-3.1-4.3-5-9.6-5-15.3c0-14.4,11.7-26.1,26.1-26.1c14.4,0,26.1,11.7,26.1,26.1C76.7,63.6,65,75.3,50.6,75.3z M65.3,56.3 c-0.8-0.4-4.6-2.5-5.4-2.8c-0.7-0.3-1.3-0.4-1.8,0.3c-0.6,0.8-2.2,2.5-2.7,3c-0.5,0.5-1,0.6-1.7,0.1c-0.8-0.4-3.3-1.4-6.3-4.2 c-2.3-2.2-3.8-4.9-4.2-5.7c-0.4-0.8,0-1.2,0.4-1.6c0.4-0.3,0.8-0.9,1.3-1.4c0.4-0.5,0.6-0.8,0.9-1.3c0.3-0.5,0.2-1,0-1.4 c-0.2-0.4-1.6-4.4-2.2-6c-0.6-1.6-1.3-1.4-1.8-1.4c-0.5,0-1-0.1-1.5-0.1c-0.5,0-1.4,0.1-2.2,0.9c-0.8,0.8-2.9,2.6-3.1,6.6 c-0.1,3.9,2.6,7.8,3,8.4c0.4,0.5,5.2,9.1,13.2,12.6c8,3.5,8.1,2.4,9.5,2.4c1.5-0.1,4.8-1.8,5.5-3.6c0.7-1.8,0.8-3.4,0.6-3.8 C66.6,56.9,66.1,56.7,65.3,56.3z"></path> </g> </g> </svg> 